<mxfile host="app.diagrams.net" modified="2024-05-23T06:10:56.972Z" agent="Mozilla/5.0 (Macintosh; Intel Mac OS X 10_15_7) AppleWebKit/537.36 (KHTML, like Gecko) Chrome/115.0.0.0 Safari/537.36" version="24.4.6" etag="qlIftxJ0rI6FuIh1hXLI" type="github">
  <diagram name="Page-1" id="-emiVR47_tWS1EY5Xug8">
    <mxGraphModel>
      <root>
        <mxCell id="0" />
        <mxCell id="1" parent="0" />
      </root>
    </mxGraphModel>
  </diagram>
</mxfile>
